<mxfile host="app.diagrams.net" agent="Mozilla/5.0 (Windows NT 10.0; Win64; x64) AppleWebKit/537.36 (KHTML, like Gecko) Chrome/137.0.0.0 Safari/537.36" version="26.2.14">
  <diagram id="C5RBs43oDa-KdzZeNtuy" name="Page-1">
    <mxGraphModel dx="694" dy="748" grid="1" gridSize="10" guides="1" tooltips="1" connect="1" arrows="1" fold="1" page="1" pageScale="1" pageWidth="827" pageHeight="1169" math="0" shadow="0">
      <root>
        <mxCell id="WIyWlLk6GJQsqaUBKTNV-0" />
        <mxCell id="WIyWlLk6GJQsqaUBKTNV-1" parent="WIyWlLk6GJQsqaUBKTNV-0" />
        <mxCell id="hMLY8KhpYSAwk893OgB3-16" value="" style="shape=folder;fontStyle=1;spacingTop=10;tabWidth=40;tabHeight=14;tabPosition=left;html=1;whiteSpace=wrap;" vertex="1" parent="WIyWlLk6GJQsqaUBKTNV-1">
          <mxGeometry x="60" y="80" width="505" height="760" as="geometry" />
        </mxCell>
        <mxCell id="hMLY8KhpYSAwk893OgB3-17" value="" style="shape=folder;fontStyle=1;spacingTop=10;tabWidth=40;tabHeight=14;tabPosition=left;html=1;whiteSpace=wrap;" vertex="1" parent="WIyWlLk6GJQsqaUBKTNV-1">
          <mxGeometry x="70" y="110" width="480" height="710" as="geometry" />
        </mxCell>
        <mxCell id="hMLY8KhpYSAwk893OgB3-18" value="SampleApp" style="text;align=center;fontStyle=1;verticalAlign=middle;spacingLeft=3;spacingRight=3;strokeColor=none;rotatable=0;points=[[0,0.5],[1,0.5]];portConstraint=eastwest;html=1;" vertex="1" parent="WIyWlLk6GJQsqaUBKTNV-1">
          <mxGeometry x="272.5" y="94" width="80" height="26" as="geometry" />
        </mxCell>
        <mxCell id="hMLY8KhpYSAwk893OgB3-19" value="" style="shape=folder;fontStyle=1;spacingTop=10;tabWidth=40;tabHeight=14;tabPosition=left;html=1;whiteSpace=wrap;" vertex="1" parent="WIyWlLk6GJQsqaUBKTNV-1">
          <mxGeometry x="100" y="170" width="420" height="140" as="geometry" />
        </mxCell>
        <mxCell id="hMLY8KhpYSAwk893OgB3-20" value="WebServer" style="text;align=center;fontStyle=1;verticalAlign=middle;spacingLeft=3;spacingRight=3;strokeColor=none;rotatable=0;points=[[0,0.5],[1,0.5]];portConstraint=eastwest;html=1;" vertex="1" parent="WIyWlLk6GJQsqaUBKTNV-1">
          <mxGeometry x="272.5" y="120" width="80" height="26" as="geometry" />
        </mxCell>
        <mxCell id="hMLY8KhpYSAwk893OgB3-21" value="Main" style="shape=folder;fontStyle=1;spacingTop=10;tabWidth=40;tabHeight=14;tabPosition=left;html=1;whiteSpace=wrap;" vertex="1" parent="WIyWlLk6GJQsqaUBKTNV-1">
          <mxGeometry x="120" y="220" width="180" height="65" as="geometry" />
        </mxCell>
        <mxCell id="hMLY8KhpYSAwk893OgB3-23" value="" style="shape=folder;fontStyle=1;spacingTop=10;tabWidth=40;tabHeight=14;tabPosition=left;html=1;whiteSpace=wrap;" vertex="1" parent="WIyWlLk6GJQsqaUBKTNV-1">
          <mxGeometry x="100" y="330" width="420" height="470" as="geometry" />
        </mxCell>
        <mxCell id="hMLY8KhpYSAwk893OgB3-26" value="Actuator" style="shape=folder;fontStyle=1;spacingTop=10;tabWidth=40;tabHeight=14;tabPosition=left;html=1;whiteSpace=wrap;" vertex="1" parent="WIyWlLk6GJQsqaUBKTNV-1">
          <mxGeometry x="120" y="380" width="100" height="65" as="geometry" />
        </mxCell>
        <mxCell id="hMLY8KhpYSAwk893OgB3-27" value="Sensor" style="shape=folder;fontStyle=1;spacingTop=10;tabWidth=40;tabHeight=14;tabPosition=left;html=1;whiteSpace=wrap;" vertex="1" parent="WIyWlLk6GJQsqaUBKTNV-1">
          <mxGeometry x="404" y="380" width="100" height="65" as="geometry" />
        </mxCell>
        <mxCell id="hMLY8KhpYSAwk893OgB3-28" value="Condition" style="shape=folder;fontStyle=1;spacingTop=10;tabWidth=40;tabHeight=14;tabPosition=left;html=1;whiteSpace=wrap;" vertex="1" parent="WIyWlLk6GJQsqaUBKTNV-1">
          <mxGeometry x="120" y="540" width="100" height="65" as="geometry" />
        </mxCell>
        <mxCell id="hMLY8KhpYSAwk893OgB3-29" value="Datacore" style="shape=folder;fontStyle=1;spacingTop=10;tabWidth=40;tabHeight=14;tabPosition=left;html=1;whiteSpace=wrap;" vertex="1" parent="WIyWlLk6GJQsqaUBKTNV-1">
          <mxGeometry x="404" y="540" width="100" height="65" as="geometry" />
        </mxCell>
        <mxCell id="hMLY8KhpYSAwk893OgB3-30" value="Action" style="shape=folder;fontStyle=1;spacingTop=10;tabWidth=40;tabHeight=14;tabPosition=left;html=1;whiteSpace=wrap;" vertex="1" parent="WIyWlLk6GJQsqaUBKTNV-1">
          <mxGeometry x="260" y="700" width="100" height="65" as="geometry" />
        </mxCell>
        <mxCell id="hMLY8KhpYSAwk893OgB3-31" value="" style="endArrow=open;endSize=12;dashed=1;html=1;rounded=0;entryX=0.248;entryY=0.01;entryDx=0;entryDy=0;entryPerimeter=0;exitX=0.25;exitY=1;exitDx=0;exitDy=0;exitPerimeter=0;" edge="1" parent="WIyWlLk6GJQsqaUBKTNV-1" source="hMLY8KhpYSAwk893OgB3-48" target="hMLY8KhpYSAwk893OgB3-26">
          <mxGeometry width="160" relative="1" as="geometry">
            <mxPoint x="145" y="280" as="sourcePoint" />
            <mxPoint x="330" y="330" as="targetPoint" />
          </mxGeometry>
        </mxCell>
        <mxCell id="hMLY8KhpYSAwk893OgB3-32" value="" style="endArrow=open;endSize=12;dashed=1;html=1;rounded=0;entryX=0.5;entryY=1;entryDx=0;entryDy=0;entryPerimeter=0;exitX=0.753;exitY=0.196;exitDx=0;exitDy=0;exitPerimeter=0;" edge="1" parent="WIyWlLk6GJQsqaUBKTNV-1" source="hMLY8KhpYSAwk893OgB3-26" target="hMLY8KhpYSAwk893OgB3-48">
          <mxGeometry width="160" relative="1" as="geometry">
            <mxPoint x="200" y="380" as="sourcePoint" />
            <mxPoint x="360" y="380" as="targetPoint" />
          </mxGeometry>
        </mxCell>
        <mxCell id="hMLY8KhpYSAwk893OgB3-33" value="" style="endArrow=open;endSize=12;dashed=1;html=1;rounded=0;exitX=0.25;exitY=1;exitDx=0;exitDy=0;exitPerimeter=0;entryX=0.248;entryY=0.01;entryDx=0;entryDy=0;entryPerimeter=0;" edge="1" parent="WIyWlLk6GJQsqaUBKTNV-1">
          <mxGeometry width="160" relative="1" as="geometry">
            <mxPoint x="428" y="285" as="sourcePoint" />
            <mxPoint x="428" y="381" as="targetPoint" />
          </mxGeometry>
        </mxCell>
        <mxCell id="hMLY8KhpYSAwk893OgB3-34" value="" style="endArrow=open;endSize=12;dashed=1;html=1;rounded=0;entryX=0.75;entryY=1;entryDx=0;entryDy=0;entryPerimeter=0;exitX=0.753;exitY=0.196;exitDx=0;exitDy=0;exitPerimeter=0;" edge="1" parent="WIyWlLk6GJQsqaUBKTNV-1">
          <mxGeometry width="160" relative="1" as="geometry">
            <mxPoint x="478" y="393" as="sourcePoint" />
            <mxPoint x="478" y="285" as="targetPoint" />
          </mxGeometry>
        </mxCell>
        <mxCell id="hMLY8KhpYSAwk893OgB3-35" value="" style="endArrow=open;endSize=12;dashed=1;html=1;rounded=0;exitX=0.25;exitY=1;exitDx=0;exitDy=0;exitPerimeter=0;entryX=0.248;entryY=0.01;entryDx=0;entryDy=0;entryPerimeter=0;" edge="1" parent="WIyWlLk6GJQsqaUBKTNV-1">
          <mxGeometry width="160" relative="1" as="geometry">
            <mxPoint x="428" y="445" as="sourcePoint" />
            <mxPoint x="428" y="541" as="targetPoint" />
          </mxGeometry>
        </mxCell>
        <mxCell id="hMLY8KhpYSAwk893OgB3-36" value="" style="endArrow=open;endSize=12;dashed=1;html=1;rounded=0;entryX=0.75;entryY=1;entryDx=0;entryDy=0;entryPerimeter=0;exitX=0.753;exitY=0.196;exitDx=0;exitDy=0;exitPerimeter=0;" edge="1" parent="WIyWlLk6GJQsqaUBKTNV-1">
          <mxGeometry width="160" relative="1" as="geometry">
            <mxPoint x="478" y="553" as="sourcePoint" />
            <mxPoint x="478" y="445" as="targetPoint" />
          </mxGeometry>
        </mxCell>
        <mxCell id="hMLY8KhpYSAwk893OgB3-37" value="" style="endArrow=open;endSize=12;dashed=1;html=1;rounded=0;exitX=0.25;exitY=1;exitDx=0;exitDy=0;exitPerimeter=0;entryX=0.248;entryY=0.01;entryDx=0;entryDy=0;entryPerimeter=0;" edge="1" parent="WIyWlLk6GJQsqaUBKTNV-1">
          <mxGeometry width="160" relative="1" as="geometry">
            <mxPoint x="144.84" y="445" as="sourcePoint" />
            <mxPoint x="144.84" y="541" as="targetPoint" />
          </mxGeometry>
        </mxCell>
        <mxCell id="hMLY8KhpYSAwk893OgB3-38" value="" style="endArrow=open;endSize=12;dashed=1;html=1;rounded=0;entryX=0.75;entryY=1;entryDx=0;entryDy=0;entryPerimeter=0;exitX=0.753;exitY=0.196;exitDx=0;exitDy=0;exitPerimeter=0;" edge="1" parent="WIyWlLk6GJQsqaUBKTNV-1">
          <mxGeometry width="160" relative="1" as="geometry">
            <mxPoint x="194.84" y="553" as="sourcePoint" />
            <mxPoint x="194.84" y="445" as="targetPoint" />
          </mxGeometry>
        </mxCell>
        <mxCell id="hMLY8KhpYSAwk893OgB3-39" value="" style="endArrow=open;endSize=12;dashed=1;html=1;rounded=0;entryX=0;entryY=0;entryDx=0;entryDy=39.5;entryPerimeter=0;exitX=0.5;exitY=1;exitDx=0;exitDy=0;exitPerimeter=0;" edge="1" parent="WIyWlLk6GJQsqaUBKTNV-1" source="hMLY8KhpYSAwk893OgB3-28" target="hMLY8KhpYSAwk893OgB3-30">
          <mxGeometry width="160" relative="1" as="geometry">
            <mxPoint x="110" y="690" as="sourcePoint" />
            <mxPoint x="270" y="690" as="targetPoint" />
            <Array as="points">
              <mxPoint x="170" y="720" />
            </Array>
          </mxGeometry>
        </mxCell>
        <mxCell id="hMLY8KhpYSAwk893OgB3-40" value="" style="endArrow=open;endSize=12;dashed=1;html=1;rounded=0;exitX=0.564;exitY=1.02;exitDx=0;exitDy=0;exitPerimeter=0;entryX=0;entryY=0;entryDx=100;entryDy=39.5;entryPerimeter=0;" edge="1" parent="WIyWlLk6GJQsqaUBKTNV-1" source="hMLY8KhpYSAwk893OgB3-29" target="hMLY8KhpYSAwk893OgB3-30">
          <mxGeometry width="160" relative="1" as="geometry">
            <mxPoint x="460" y="640" as="sourcePoint" />
            <mxPoint x="400" y="739.5" as="targetPoint" />
            <Array as="points">
              <mxPoint x="460" y="720" />
            </Array>
          </mxGeometry>
        </mxCell>
        <mxCell id="hMLY8KhpYSAwk893OgB3-41" value="Interface" style="text;align=center;fontStyle=1;verticalAlign=middle;spacingLeft=3;spacingRight=3;strokeColor=none;rotatable=0;points=[[0,0.5],[1,0.5]];portConstraint=eastwest;html=1;" vertex="1" parent="WIyWlLk6GJQsqaUBKTNV-1">
          <mxGeometry x="270" y="180" width="80" height="26" as="geometry" />
        </mxCell>
        <mxCell id="hMLY8KhpYSAwk893OgB3-42" value="Service" style="text;align=center;fontStyle=1;verticalAlign=middle;spacingLeft=3;spacingRight=3;strokeColor=none;rotatable=0;points=[[0,0.5],[1,0.5]];portConstraint=eastwest;html=1;" vertex="1" parent="WIyWlLk6GJQsqaUBKTNV-1">
          <mxGeometry x="272.5" y="340" width="80" height="26" as="geometry" />
        </mxCell>
        <mxCell id="hMLY8KhpYSAwk893OgB3-45" value="" style="endArrow=open;endSize=12;dashed=1;html=1;rounded=0;entryX=0;entryY=0;entryDx=0;entryDy=39.5;entryPerimeter=0;" edge="1" parent="WIyWlLk6GJQsqaUBKTNV-1" target="hMLY8KhpYSAwk893OgB3-29">
          <mxGeometry width="160" relative="1" as="geometry">
            <mxPoint x="220" y="580" as="sourcePoint" />
            <mxPoint x="380" y="580" as="targetPoint" />
          </mxGeometry>
        </mxCell>
        <mxCell id="hMLY8KhpYSAwk893OgB3-46" value="" style="endArrow=open;endSize=12;dashed=1;html=1;rounded=0;entryX=0;entryY=0;entryDx=0;entryDy=39.5;entryPerimeter=0;" edge="1" parent="WIyWlLk6GJQsqaUBKTNV-1">
          <mxGeometry width="160" relative="1" as="geometry">
            <mxPoint x="220.5" y="420" as="sourcePoint" />
            <mxPoint x="404.5" y="420" as="targetPoint" />
          </mxGeometry>
        </mxCell>
        <mxCell id="hMLY8KhpYSAwk893OgB3-47" value="" style="endArrow=open;endSize=12;dashed=1;html=1;rounded=0;entryX=0;entryY=0;entryDx=20;entryDy=0;entryPerimeter=0;exitX=0;exitY=0;exitDx=100;exitDy=65;exitPerimeter=0;" edge="1" parent="WIyWlLk6GJQsqaUBKTNV-1" source="hMLY8KhpYSAwk893OgB3-26" target="hMLY8KhpYSAwk893OgB3-30">
          <mxGeometry width="160" relative="1" as="geometry">
            <mxPoint x="230" y="590" as="sourcePoint" />
            <mxPoint x="414" y="590" as="targetPoint" />
          </mxGeometry>
        </mxCell>
        <mxCell id="hMLY8KhpYSAwk893OgB3-48" value="Scenario" style="shape=folder;fontStyle=1;spacingTop=10;tabWidth=40;tabHeight=14;tabPosition=left;html=1;whiteSpace=wrap;" vertex="1" parent="WIyWlLk6GJQsqaUBKTNV-1">
          <mxGeometry x="324" y="220" width="180" height="65" as="geometry" />
        </mxCell>
        <mxCell id="hMLY8KhpYSAwk893OgB3-49" value="" style="endArrow=open;endSize=12;dashed=1;html=1;rounded=0;entryX=0;entryY=0;entryDx=0;entryDy=26.75;entryPerimeter=0;exitX=1.006;exitY=0.523;exitDx=0;exitDy=0;exitPerimeter=0;" edge="1" parent="WIyWlLk6GJQsqaUBKTNV-1" source="hMLY8KhpYSAwk893OgB3-21" target="hMLY8KhpYSAwk893OgB3-48">
          <mxGeometry width="160" relative="1" as="geometry">
            <mxPoint x="205" y="403" as="sourcePoint" />
            <mxPoint x="220" y="295" as="targetPoint" />
          </mxGeometry>
        </mxCell>
      </root>
    </mxGraphModel>
  </diagram>
</mxfile>
